#!OML:ASF F:\VICON\USERDATA\INSTALL\rory3\rory3.ASF
:FULLY-SPECIFIED
:DEGREES
2717
root -0.0665258 15.7555 -8.92613 153.355 -173.74 -177.509
lowerback 31.2475 1.23055 -3.47561
upperback 14.7021 0.453469 -1.0212
thorax -0.404994 0.0331672 0.725758
lowerneck -4.51195 -9.49208 -13.8039
upperneck -5.97276 -11.8707 14.6597
head 0.73219 -5.80334 6.2589
rclavicle -1.59028e-015 1.66979e-014
rhumerus -13.4429 26.3645 -77.6322
rradius 77.4052
rwrist 19.4176
rhand -16.2866 6.04428
rfingers 7.12502
rthumb 9.92365 -23.7018
lclavicle -1.59028e-015 1.66979e-014
lhumerus -16.4538 -18.1954 71.7825
lradius 84.3955
lwrist -9.1118
lhand -17.5134 23.0387
lfingers 7.12502
lthumb 8.73994 52.8378
rfemur -43.6294 -9.24922 3.72784
rtibia 81.7043
rfoot 25.7832 -34.8292
rtoes 34.6968
lfemur -35.1015 18.5295 2.50606
ltibia 86.7436
lfoot 39.6306 -3.46171
ltoes 11.2948
2718
root -0.0624638 15.753 -8.93074 153.387 -173.702 -177.481
lowerback 31.199 1.25534 -3.5508
upperback 14.6913 0.465559 -1.02965
thorax -0.396429 0.0352169 0.756053
lowerneck -4.45954 -9.46821 -13.8419
upperneck -6.12646 -11.8316 14.6674
head 0.676451 -5.78585 6.27729
rclavicle -1.59028e-014 1.33186e-014
rhumerus -13.2142 26.4483 -77.674
rradius 77.1151
rwrist 19.5715
rhand -16.2476 6.18364
rfingers 7.12502
rthumb 9.96126 -23.5607
lclavicle -1.59028e-014 1.33186e-014
lhumerus -15.9809 -19.5766 71.5625
lradius 83.9704
lwrist -8.9217
lhand -16.219 23.367
lfingers 7.12502
lthumb 9.98886 53.11
rfemur -43.7439 -9.48656 3.72263
rtibia 81.7677
rfoot 25.1892 -35.0069
rtoes 34.7515
lfemur -35.0948 18.6959 2.53166
ltibia 86.7432
lfoot 39.6131 -3.32534
ltoes 11.793
2719
root -0.0587435 15.754 -8.93614 153.4 -173.764 -177.318
lowerback 31.1483 1.27523 -3.78899
upperback 14.7244 0.426857 -1.08872
thorax -0.332272 0.00390275 0.838749
lowerneck -4.5523 -9.4418 -13.873
upperneck -6.26022 -11.7733 14.6985
head 0.648579 -5.75392 6.29562
rclavicle 2.62396e-014 1.11319e-014
rhumerus -12.8689 26.5391 -77.6917
rradius 76.8303
rwrist 19.8888
rhand -16.3227 6.28808
rfingers 7.12502
rthumb 9.88884 -23.4597
lclavicle 2.62396e-014 1.11319e-014
lhumerus -15.506 -20.4811 71.3336
lradius 83.5492
lwrist -9.21996
lhand -13.8966 23.5334
lfingers 7.12502
lthumb 12.2288 53.1559
rfemur -43.8312 -9.79565 3.5412
rtibia 81.8371
rfoot 25.048 -34.9267
rtoes 34.7723
lfemur -35.0681 18.7663 2.33785
ltibia 86.7249
lfoot 39.504 -3.14487
ltoes 12.2573
2720
root -0.0556258 15.7582 -8.94138 153.358 -173.715 -177.279
lowerback 31.1566 1.26941 -3.89326
upperback 14.8023 0.388478 -1.14113
thorax -0.242512 -0.0222039 0.851689
lowerneck -4.80735 -9.41188 -13.8407
upperneck -6.33292 -11.6978 14.7282
head 0.658388 -5.70871 6.29547
rclavicle -5.06901e-015 -2.20651e-014
rhumerus -12.4756 26.6088 -77.7235
rradius 76.6273
rwrist 20.2915
rhand -16.2774 6.11084
rfingers 7.12502
rthumb 9.93255 -23.6348
lclavicle -5.06901e-015 -2.20651e-014
lhumerus -15.0009 -21.1858 71.0155
lradius 83.0866
lwrist -9.56568
lhand -11.7429 23.8382
lfingers 7.12502
lthumb 14.3047 53.3254
rfemur -43.8274 -10.0434 3.55386
rtibia 81.9228
rfoot 24.7607 -34.9715
rtoes 34.9057
lfemur -34.9431 18.8758 2.36246
ltibia 86.696
lfoot 39.4315 -3.23402
ltoes 12.3085
2721
root -0.0532736 15.757 -8.94553 153.365 -173.479 -177.488
lowerback 31.1795 1.23635 -3.75395
upperback 14.8313 0.381042 -1.11122
thorax -0.220046 -0.0222375 0.807271
lowerneck -4.9311 -9.36859 -13.7934
upperneck -6.43091 -11.6197 14.6581
head 0.630762 -5.66644 6.26998
rclavicle -3.97569e-016 -2.5842e-015
rhumerus -12.1849 26.7006 -77.7447
rradius 76.461
rwrist 20.7045
rhand -16.0053 5.86087
rfingers 7.12502
rthumb 10.195 -23.8721
lclavicle -3.97569e-016 -2.5842e-015
lhumerus -14.6037 -21.8743 70.7466
lradius 82.5595
lwrist -9.62732
lhand -10.0666 24.1092
lfingers 7.12502
lthumb 15.9195 53.4749
rfemur -43.8849 -10.2069 3.93561
rtibia 82.0421
rfoot 24.1676 -35.2345
rtoes 35.0419
lfemur -34.8631 19.1293 2.78452
ltibia 86.7036
lfoot 39.4511 -3.39576
ltoes 12.5051
